<svg width="697" height="349" viewBox="0 0 697 349" fill="none" xmlns="http://www.w3.org/2000/svg">
<rect width="697" height="349" fill="white"/>
<path d="M651.756 299.6V300.596H654.276V308H655.404V300.596H657.936V299.6H651.756ZM662.18 298.244V299.84H663.632V298.244H662.18ZM663.44 301.4H660.344V302.36H662.36V307.04H659.984V308H665.264V307.04H663.44V301.4ZM672.076 301.28C671.44 301.28 670.948 301.616 670.6 302.276C670.42 301.58 670.024 301.28 669.52 301.28C668.932 301.28 668.38 301.7 667.996 302.54L667.792 301.4H667.024V308H668.044V303.2C668.356 302.528 668.704 302.264 669.052 302.264C669.484 302.264 669.7 302.672 669.7 303.44V308H670.72V303.308C670.72 303.2 670.72 303.092 670.708 302.996C670.984 302.432 671.284 302.204 671.668 302.204C672.208 302.204 672.376 302.636 672.376 303.44V308H673.396V303.308C673.396 301.88 672.94 301.28 672.076 301.28ZM680.795 304.508C680.795 302.444 679.847 301.28 678.059 301.28C676.079 301.28 674.963 302.72 674.963 304.904C674.963 307.004 676.091 308.12 677.927 308.12C678.755 308.12 679.571 307.904 680.291 307.484V306.452C679.619 306.872 678.863 307.124 678.035 307.124C676.823 307.124 676.187 306.572 676.091 305.108H680.783C680.795 304.904 680.795 304.724 680.795 304.508ZM677.975 302.276C679.139 302.276 679.583 302.792 679.667 304.184H676.103C676.199 302.792 676.775 302.276 677.975 302.276Z" fill="black"/>
<path d="M657.72 265.6H652.284V274H653.412V270.436H657.324V269.44H653.412V266.596H657.72V265.6ZM664.1 271.684C663.212 272.788 662.66 273.196 661.952 273.196C661.196 273.196 660.884 272.776 660.884 271.984V267.4H659.804V272.128C659.804 273.472 660.488 274.12 661.604 274.12C662.66 274.12 663.5 273.52 664.16 272.452L664.364 274H665.18V267.4H664.1V271.684ZM671.104 267.28C670.06 267.28 669.22 267.868 668.548 268.948L668.344 267.4H667.54V274H668.608V269.728C669.496 268.6 670.048 268.204 670.756 268.204C671.524 268.204 671.836 268.624 671.836 269.416V274H672.904V269.272C672.904 267.928 672.22 267.28 671.104 267.28Z" fill="black"/>
<path d="M23.5 302.5C22.9477 302.5 22.5 302.948 22.5 303.5C22.5 304.052 22.9477 304.5 23.5 304.5V302.5ZM641.207 304.207C641.598 303.817 641.598 303.183 641.207 302.793L634.843 296.429C634.453 296.038 633.819 296.038 633.429 296.429C633.038 296.819 633.038 297.453 633.429 297.843L639.086 303.5L633.429 309.157C633.038 309.547 633.038 310.181 633.429 310.571C633.819 310.962 634.453 310.962 634.843 310.571L641.207 304.207ZM23.5 304.5H640.5V302.5H23.5V304.5Z" fill="#1E5F92"/>
<path d="M24 19C156.503 189 341.603 246 641 270" stroke="#E64958" stroke-width="2"/>
<path d="M31.044 335C30.54 332.3 29.64 329.18 28.536 326.6H27.156C26.052 329.18 25.14 332.3 24.636 335H25.812C25.932 334.364 26.052 333.764 26.196 333.164H29.496C29.628 333.764 29.748 334.364 29.868 335H31.044ZM26.424 332.156C26.784 330.68 27.228 329.192 27.84 327.464C28.452 329.192 28.896 330.68 29.256 332.156H26.424ZM36.4278 328.28C35.3838 328.28 34.5438 328.868 33.8718 329.948L33.6678 328.4H32.8638V335H33.9318V330.728C34.8198 329.6 35.3718 329.204 36.0798 329.204C36.8478 329.204 37.1598 329.624 37.1598 330.416V335H38.2278V330.272C38.2278 328.928 37.5438 328.28 36.4278 328.28ZM45.6396 332.972V330.38C45.6396 329.072 44.7996 328.28 43.3356 328.28C42.6036 328.28 41.7756 328.472 40.9956 328.808V329.84C41.7636 329.456 42.3876 329.276 43.2036 329.276C44.1276 329.276 44.5596 329.672 44.5596 330.488V331.052C41.5116 331.064 40.4076 331.892 40.4076 333.32C40.4076 334.448 41.1516 335.12 42.4116 335.12C43.5276 335.12 44.2596 334.64 44.7036 333.692L44.9436 335H46.0116L45.6396 332.972ZM42.6636 334.124C41.8956 334.124 41.5236 333.764 41.5236 333.128C41.5236 332.144 42.4116 331.784 44.5596 331.772V332.3C44.5596 333.344 43.8036 334.124 42.6636 334.124ZM52.5353 334.124C51.5393 334.124 51.0953 333.476 51.0953 332.276V326.12H47.6753V327.08H50.0153V332.372C50.0153 334.22 50.8673 335.12 52.3433 335.12C52.9433 335.12 53.5193 334.964 54.0593 334.676V333.668C53.5793 333.968 53.0393 334.124 52.5353 334.124ZM58.5431 334.376L56.6471 328.4H55.4711L57.7271 335H58.3031C57.9791 335.936 57.2591 336.392 55.8791 336.392V337.4C57.6671 337.4 58.7831 336.692 59.3111 335.144L61.6151 328.4H60.4391L58.5431 334.376ZM63.7349 334.628C64.5029 335 65.3909 335.12 66.1229 335.12C67.8749 335.12 68.7269 334.304 68.7269 333.176C68.7269 330.692 64.8149 331.844 64.8149 330.176C64.8149 329.648 65.1989 329.276 66.3629 329.276C66.9869 329.276 67.5869 329.36 68.4389 329.732V328.712C67.7309 328.424 66.9029 328.28 66.2069 328.28C64.5509 328.28 63.7229 329.12 63.7229 330.272C63.7229 332.756 67.6109 331.688 67.6109 333.248C67.6109 333.764 67.1669 334.124 66.0269 334.124C65.2469 334.124 64.5149 333.956 63.7349 333.596V334.628ZM73.5587 325.244V326.84H75.0107V325.244H73.5587ZM74.8187 328.4H71.7227V329.36H73.7387V334.04H71.3627V335H76.6427V334.04H74.8187V328.4ZM79.0865 334.628C79.8545 335 80.7425 335.12 81.4745 335.12C83.2265 335.12 84.0785 334.304 84.0785 333.176C84.0785 330.692 80.1665 331.844 80.1665 330.176C80.1665 329.648 80.5505 329.276 81.7145 329.276C82.3385 329.276 82.9385 329.36 83.7905 329.732V328.712C83.0825 328.424 82.2545 328.28 81.5585 328.28C79.9025 328.28 79.0745 329.12 79.0745 330.272C79.0745 332.756 82.9625 331.688 82.9625 333.248C82.9625 333.764 82.5185 334.124 81.3785 334.124C80.5985 334.124 79.8665 333.956 79.0865 333.596V334.628Z" fill="black"/>
<path d="M172.6 326.6H167.08V327.596H169.276V333.992H167.08V335H172.6V333.992H170.404V327.596H172.6V326.6ZM179.4 328.28C178.764 328.28 178.272 328.616 177.924 329.276C177.744 328.58 177.348 328.28 176.844 328.28C176.256 328.28 175.704 328.7 175.32 329.54L175.116 328.4H174.348V335H175.368V330.2C175.68 329.528 176.028 329.264 176.376 329.264C176.808 329.264 177.024 329.672 177.024 330.44V335H178.044V330.308C178.044 330.2 178.044 330.092 178.032 329.996C178.308 329.432 178.608 329.204 178.992 329.204C179.532 329.204 179.7 329.636 179.7 330.44V335H180.72V330.308C180.72 328.88 180.264 328.28 179.4 328.28ZM185.54 328.28C184.604 328.28 183.92 328.712 183.5 329.528L183.32 328.4H182.504V337.28H183.584V334.076C184.004 334.76 184.676 335.12 185.54 335.12C187.136 335.12 188.048 333.848 188.048 331.64C188.048 329.492 187.136 328.28 185.54 328.28ZM185.252 334.16C184.04 334.16 183.584 333.44 183.584 331.64C183.584 329.9 184.04 329.24 185.252 329.24C186.464 329.24 186.932 329.96 186.932 331.76C186.932 333.5 186.464 334.16 185.252 334.16ZM194.535 334.124C193.539 334.124 193.095 333.476 193.095 332.276V326.12H189.675V327.08H192.015V332.372C192.015 334.22 192.867 335.12 194.343 335.12C194.943 335.12 195.519 334.964 196.059 334.676V333.668C195.579 333.968 195.039 334.124 194.535 334.124ZM203.471 331.508C203.471 329.444 202.523 328.28 200.735 328.28C198.755 328.28 197.639 329.72 197.639 331.904C197.639 334.004 198.767 335.12 200.603 335.12C201.431 335.12 202.247 334.904 202.967 334.484V333.452C202.295 333.872 201.539 334.124 200.711 334.124C199.499 334.124 198.863 333.572 198.767 332.108H203.459C203.471 331.904 203.471 331.724 203.471 331.508ZM200.651 329.276C201.815 329.276 202.259 329.792 202.343 331.184H198.779C198.875 329.792 199.451 329.276 200.651 329.276ZM210.103 328.28C209.467 328.28 208.975 328.616 208.627 329.276C208.447 328.58 208.051 328.28 207.547 328.28C206.959 328.28 206.407 328.7 206.023 329.54L205.819 328.4H205.051V335H206.071V330.2C206.383 329.528 206.731 329.264 207.079 329.264C207.511 329.264 207.727 329.672 207.727 330.44V335H208.747V330.308C208.747 330.2 208.747 330.092 208.735 329.996C209.011 329.432 209.311 329.204 209.695 329.204C210.235 329.204 210.403 329.636 210.403 330.44V335H211.423V330.308C211.423 328.88 210.967 328.28 210.103 328.28ZM218.823 331.508C218.823 329.444 217.875 328.28 216.087 328.28C214.107 328.28 212.991 329.72 212.991 331.904C212.991 334.004 214.119 335.12 215.955 335.12C216.783 335.12 217.599 334.904 218.319 334.484V333.452C217.647 333.872 216.891 334.124 216.063 334.124C214.851 334.124 214.215 333.572 214.119 332.108H218.811C218.823 331.904 218.823 331.724 218.823 331.508ZM216.003 329.276C217.167 329.276 217.611 329.792 217.695 331.184H214.131C214.227 329.792 214.803 329.276 216.003 329.276ZM224.482 328.28C223.438 328.28 222.598 328.868 221.926 329.948L221.722 328.4H220.918V335H221.986V330.728C222.874 329.6 223.426 329.204 224.134 329.204C224.902 329.204 225.214 329.624 225.214 330.416V335H226.282V330.272C226.282 328.928 225.598 328.28 224.482 328.28ZM233.814 328.4H230.934V326.924H230.106L229.854 328.4L228.33 328.664V329.36H229.854V332.924C229.854 334.22 230.61 335.12 232.242 335.12C232.794 335.12 233.334 335.012 233.814 334.844V333.812C233.358 334.016 232.842 334.124 232.35 334.124C231.306 334.124 230.934 333.668 230.934 332.78V329.36H233.814V328.4ZM241.37 332.972V330.38C241.37 329.072 240.53 328.28 239.066 328.28C238.334 328.28 237.506 328.472 236.726 328.808V329.84C237.494 329.456 238.118 329.276 238.934 329.276C239.858 329.276 240.29 329.672 240.29 330.488V331.052C237.242 331.064 236.138 331.892 236.138 333.32C236.138 334.448 236.882 335.12 238.142 335.12C239.258 335.12 239.99 334.64 240.434 333.692L240.674 335H241.742L241.37 332.972ZM238.394 334.124C237.626 334.124 237.254 333.764 237.254 333.128C237.254 332.144 238.142 331.784 240.29 331.772V332.3C240.29 333.344 239.534 334.124 238.394 334.124ZM249.166 328.4H246.286V326.924H245.458L245.206 328.4L243.682 328.664V329.36H245.206V332.924C245.206 334.22 245.962 335.12 247.594 335.12C248.146 335.12 248.686 335.012 249.166 334.844V333.812C248.71 334.016 248.194 334.124 247.702 334.124C246.658 334.124 246.286 333.668 246.286 332.78V329.36H249.166V328.4ZM253.938 325.244V326.84H255.39V325.244H253.938ZM255.198 328.4H252.102V329.36H254.118V334.04H251.742V335H257.022V334.04H255.198V328.4ZM261.829 335.12C263.749 335.12 264.853 333.812 264.853 331.508C264.853 329.456 263.857 328.28 262.069 328.28C260.161 328.28 259.057 329.588 259.057 331.88C259.057 333.944 260.053 335.12 261.829 335.12ZM261.949 334.124C260.665 334.124 260.173 333.488 260.173 331.712C260.173 329.936 260.665 329.276 261.949 329.276C263.245 329.276 263.725 329.912 263.725 331.676C263.725 333.452 263.245 334.124 261.949 334.124ZM270.537 328.28C269.493 328.28 268.653 328.868 267.981 329.948L267.777 328.4H266.973V335H268.041V330.728C268.929 329.6 269.481 329.204 270.189 329.204C270.957 329.204 271.269 329.624 271.269 330.416V335H272.337V330.272C272.337 328.928 271.653 328.28 270.537 328.28Z" fill="black"/>
<path d="M365.6 326.6H364.184L362.84 329.624L361.496 326.6H360.092L359.684 335H360.812L361.076 327.896L362.576 331.256H363.116L364.604 327.896L364.868 335H366.008L365.6 326.6ZM372.964 332.972V330.38C372.964 329.072 372.124 328.28 370.66 328.28C369.928 328.28 369.1 328.472 368.32 328.808V329.84C369.088 329.456 369.712 329.276 370.528 329.276C371.452 329.276 371.884 329.672 371.884 330.488V331.052C368.836 331.064 367.732 331.892 367.732 333.32C367.732 334.448 368.476 335.12 369.736 335.12C370.852 335.12 371.584 334.64 372.028 333.692L372.268 335H373.336L372.964 332.972ZM369.988 334.124C369.22 334.124 368.848 333.764 368.848 333.128C368.848 332.144 369.736 331.784 371.884 331.772V332.3C371.884 333.344 371.128 334.124 369.988 334.124ZM377.856 325.244V326.84H379.308V325.244H377.856ZM379.116 328.4H376.02V329.36H378.036V334.04H375.66V335H380.94V334.04H379.116V328.4ZM386.779 328.28C385.735 328.28 384.895 328.868 384.223 329.948L384.019 328.4H383.215V335H384.283V330.728C385.171 329.6 385.723 329.204 386.431 329.204C387.199 329.204 387.511 329.624 387.511 330.416V335H388.579V330.272C388.579 328.928 387.895 328.28 386.779 328.28ZM396.111 328.4H393.231V326.924H392.403L392.151 328.4L390.627 328.664V329.36H392.151V332.924C392.151 334.22 392.907 335.12 394.539 335.12C395.091 335.12 395.631 335.012 396.111 334.844V333.812C395.655 334.016 395.139 334.124 394.647 334.124C393.603 334.124 393.231 333.668 393.231 332.78V329.36H396.111V328.4ZM403.667 332.972V330.38C403.667 329.072 402.827 328.28 401.363 328.28C400.631 328.28 399.803 328.472 399.023 328.808V329.84C399.791 329.456 400.415 329.276 401.231 329.276C402.155 329.276 402.587 329.672 402.587 330.488V331.052C399.539 331.064 398.435 331.892 398.435 333.32C398.435 334.448 399.179 335.12 400.439 335.12C401.555 335.12 402.287 334.64 402.731 333.692L402.971 335H404.039L403.667 332.972ZM400.691 334.124C399.923 334.124 399.551 333.764 399.551 333.128C399.551 332.144 400.439 331.784 402.587 331.772V332.3C402.587 333.344 401.831 334.124 400.691 334.124ZM409.807 328.28C408.763 328.28 407.923 328.868 407.251 329.948L407.047 328.4H406.243V335H407.311V330.728C408.199 329.6 408.751 329.204 409.459 329.204C410.227 329.204 410.539 329.624 410.539 330.416V335H411.607V330.272C411.607 328.928 410.923 328.28 409.807 328.28ZM419.018 332.972V330.38C419.018 329.072 418.178 328.28 416.714 328.28C415.982 328.28 415.154 328.472 414.374 328.808V329.84C415.142 329.456 415.766 329.276 416.582 329.276C417.506 329.276 417.938 329.672 417.938 330.488V331.052C414.89 331.064 413.786 331.892 413.786 333.32C413.786 334.448 414.53 335.12 415.79 335.12C416.906 335.12 417.638 334.64 418.082 333.692L418.322 335H419.39L419.018 332.972ZM416.042 334.124C415.274 334.124 414.902 333.764 414.902 333.128C414.902 332.144 415.79 331.784 417.938 331.772V332.3C417.938 333.344 417.182 334.124 416.042 334.124ZM425.158 328.28C424.114 328.28 423.274 328.868 422.602 329.948L422.398 328.4H421.594V335H422.662V330.728C423.55 329.6 424.102 329.204 424.81 329.204C425.578 329.204 425.89 329.624 425.89 330.416V335H426.958V330.272C426.958 328.928 426.274 328.28 425.158 328.28ZM434.826 330.788C434.826 329.252 433.722 328.28 432.15 328.28C430.254 328.28 429.126 329.588 429.126 331.88C429.126 333.944 430.254 335.12 432.09 335.12C432.93 335.12 433.746 334.892 434.454 334.46V333.416C433.686 333.932 433.05 334.124 432.234 334.124C430.782 334.124 430.242 333.452 430.242 331.712C430.242 329.924 430.734 329.24 432.126 329.24C433.242 329.24 433.71 329.672 433.71 330.788H434.826ZM442.526 331.508C442.526 329.444 441.578 328.28 439.79 328.28C437.81 328.28 436.694 329.72 436.694 331.904C436.694 334.004 437.822 335.12 439.658 335.12C440.486 335.12 441.302 334.904 442.022 334.484V333.452C441.35 333.872 440.594 334.124 439.766 334.124C438.554 334.124 437.918 333.572 437.822 332.108H442.514C442.526 331.904 442.526 331.724 442.526 331.508ZM439.706 329.276C440.87 329.276 441.314 329.792 441.398 331.184H437.834C437.93 329.792 438.506 329.276 439.706 329.276Z" fill="black"/>
<circle r="3.5" transform="matrix(-1 0 0 1 51.5 303.5)" fill="#1E5F92"/>
<circle r="3.5" transform="matrix(-1 0 0 1 219.5 303.5)" fill="#1E5F92"/>
<circle r="3.5" transform="matrix(-1 0 0 1 402.5 303.5)" fill="#1E5F92"/>
</svg>
