<svg width="697" height="349" viewBox="0 0 697 349" fill="none" xmlns="http://www.w3.org/2000/svg">
<rect width="697" height="349" fill="white"/>
<rect opacity="0.5" x="24" y="32" width="254" height="272" fill="#F0FFEC"/>
<rect opacity="0.15" x="278" y="32" width="186" height="272" fill="#E1A36A"/>
<rect opacity="0.15" x="464" y="32" width="233" height="272" fill="url(#paint0_linear)"/>
<path d="M651.756 299.6V300.596H654.276V308H655.404V300.596H657.936V299.6H651.756ZM662.18 298.244V299.84H663.632V298.244H662.18ZM663.44 301.4H660.344V302.36H662.36V307.04H659.984V308H665.264V307.04H663.44V301.4ZM672.076 301.28C671.44 301.28 670.948 301.616 670.6 302.276C670.42 301.58 670.024 301.28 669.52 301.28C668.932 301.28 668.38 301.7 667.996 302.54L667.792 301.4H667.024V308H668.044V303.2C668.356 302.528 668.704 302.264 669.052 302.264C669.484 302.264 669.7 302.672 669.7 303.44V308H670.72V303.308C670.72 303.2 670.72 303.092 670.708 302.996C670.984 302.432 671.284 302.204 671.668 302.204C672.208 302.204 672.376 302.636 672.376 303.44V308H673.396V303.308C673.396 301.88 672.94 301.28 672.076 301.28ZM680.795 304.508C680.795 302.444 679.847 301.28 678.059 301.28C676.079 301.28 674.963 302.72 674.963 304.904C674.963 307.004 676.091 308.12 677.927 308.12C678.755 308.12 679.571 307.904 680.291 307.484V306.452C679.619 306.872 678.863 307.124 678.035 307.124C676.823 307.124 676.187 306.572 676.091 305.108H680.783C680.795 304.904 680.795 304.724 680.795 304.508ZM677.975 302.276C679.139 302.276 679.583 302.792 679.667 304.184H676.103C676.199 302.792 676.775 302.276 677.975 302.276Z" fill="black"/>
<path d="M18.72 10.6H13.284V19H14.412V15.436H18.324V14.44H14.412V11.596H18.72V10.6ZM25.0998 16.684C24.2118 17.788 23.6598 18.196 22.9518 18.196C22.1958 18.196 21.8838 17.776 21.8838 16.984V12.4H20.8038V17.128C20.8038 18.472 21.4878 19.12 22.6038 19.12C23.6598 19.12 24.4998 18.52 25.1598 17.452L25.3638 19H26.1798V12.4H25.0998V16.684ZM32.1036 12.28C31.0596 12.28 30.2196 12.868 29.5476 13.948L29.3436 12.4H28.5396V19H29.6076V14.728C30.4956 13.6 31.0476 13.204 31.7556 13.204C32.5236 13.204 32.8356 13.624 32.8356 14.416V19H33.9036V14.272C33.9036 12.928 33.2196 12.28 32.1036 12.28Z" fill="black"/>
<path d="M23.5 302.5C22.9477 302.5 22.5 302.948 22.5 303.5C22.5 304.052 22.9477 304.5 23.5 304.5V302.5ZM641.207 304.207C641.598 303.817 641.598 303.183 641.207 302.793L634.843 296.429C634.453 296.038 633.819 296.038 633.429 296.429C633.038 296.819 633.038 297.453 633.429 297.843L639.086 303.5L633.429 309.157C633.038 309.547 633.038 310.181 633.429 310.571C633.819 310.962 634.453 310.962 634.843 310.571L641.207 304.207ZM23.5 304.5H640.5V302.5H23.5V304.5Z" fill="#1E5F92"/>
<path d="M23 331C23 331.552 23.4477 332 24 332C24.5523 332 25 331.552 25 331L23 331ZM24.7071 33.2929C24.3166 32.9024 23.6834 32.9024 23.2929 33.2929L16.9289 39.6569C16.5384 40.0474 16.5384 40.6805 16.9289 41.0711C17.3195 41.4616 17.9526 41.4616 18.3432 41.0711L24 35.4142L29.6569 41.0711C30.0474 41.4616 30.6806 41.4616 31.0711 41.0711C31.4616 40.6805 31.4616 40.0474 31.0711 39.6569L24.7071 33.2929ZM25 331L25 34L23 34L23 331L25 331Z" fill="#1E5F92"/>
<path d="M48 34C175.349 193.841 353.249 247.434 641 270" stroke="#E64958" stroke-width="2"/>
<path d="M55.044 335C54.54 332.3 53.64 329.18 52.536 326.6H51.156C50.052 329.18 49.14 332.3 48.636 335H49.812C49.932 334.364 50.052 333.764 50.196 333.164H53.496C53.628 333.764 53.748 334.364 53.868 335H55.044ZM50.424 332.156C50.784 330.68 51.228 329.192 51.84 327.464C52.452 329.192 52.896 330.68 53.256 332.156H50.424ZM60.4278 328.28C59.3838 328.28 58.5438 328.868 57.8718 329.948L57.6678 328.4H56.8638V335H57.9318V330.728C58.8198 329.6 59.3718 329.204 60.0798 329.204C60.8478 329.204 61.1598 329.624 61.1598 330.416V335H62.2278V330.272C62.2278 328.928 61.5438 328.28 60.4278 328.28ZM69.6396 332.972V330.38C69.6396 329.072 68.7996 328.28 67.3356 328.28C66.6036 328.28 65.7756 328.472 64.9956 328.808V329.84C65.7636 329.456 66.3876 329.276 67.2036 329.276C68.1276 329.276 68.5596 329.672 68.5596 330.488V331.052C65.5116 331.064 64.4076 331.892 64.4076 333.32C64.4076 334.448 65.1516 335.12 66.4116 335.12C67.5276 335.12 68.2596 334.64 68.7036 333.692L68.9436 335H70.0116L69.6396 332.972ZM66.6636 334.124C65.8956 334.124 65.5236 333.764 65.5236 333.128C65.5236 332.144 66.4116 331.784 68.5596 331.772V332.3C68.5596 333.344 67.8036 334.124 66.6636 334.124ZM76.5353 334.124C75.5393 334.124 75.0953 333.476 75.0953 332.276V326.12H71.6753V327.08H74.0153V332.372C74.0153 334.22 74.8673 335.12 76.3433 335.12C76.9433 335.12 77.5193 334.964 78.0593 334.676V333.668C77.5793 333.968 77.0393 334.124 76.5353 334.124ZM82.5431 334.376L80.6471 328.4H79.4711L81.7271 335H82.3031C81.9791 335.936 81.2591 336.392 79.8791 336.392V337.4C81.6671 337.4 82.7831 336.692 83.3111 335.144L85.6151 328.4H84.4391L82.5431 334.376ZM87.7349 334.628C88.5029 335 89.3909 335.12 90.1229 335.12C91.8749 335.12 92.7269 334.304 92.7269 333.176C92.7269 330.692 88.8149 331.844 88.8149 330.176C88.8149 329.648 89.1989 329.276 90.3629 329.276C90.9869 329.276 91.5869 329.36 92.4389 329.732V328.712C91.7309 328.424 90.9029 328.28 90.2069 328.28C88.5509 328.28 87.7229 329.12 87.7229 330.272C87.7229 332.756 91.6109 331.688 91.6109 333.248C91.6109 333.764 91.1669 334.124 90.0269 334.124C89.2469 334.124 88.5149 333.956 87.7349 333.596V334.628ZM97.5587 325.244V326.84H99.0107V325.244H97.5587ZM98.8187 328.4H95.7227V329.36H97.7387V334.04H95.3627V335H100.643V334.04H98.8187V328.4ZM103.086 334.628C103.854 335 104.742 335.12 105.474 335.12C107.226 335.12 108.078 334.304 108.078 333.176C108.078 330.692 104.166 331.844 104.166 330.176C104.166 329.648 104.55 329.276 105.714 329.276C106.338 329.276 106.938 329.36 107.79 329.732V328.712C107.082 328.424 106.254 328.28 105.558 328.28C103.902 328.28 103.074 329.12 103.074 330.272C103.074 332.756 106.962 331.688 106.962 333.248C106.962 333.764 106.518 334.124 105.378 334.124C104.598 334.124 103.866 333.956 103.086 333.596V334.628Z" fill="black"/>
<path d="M222.6 326.6H217.08V327.596H219.276V333.992H217.08V335H222.6V333.992H220.404V327.596H222.6V326.6ZM229.4 328.28C228.764 328.28 228.272 328.616 227.924 329.276C227.744 328.58 227.348 328.28 226.844 328.28C226.256 328.28 225.704 328.7 225.32 329.54L225.116 328.4H224.348V335H225.368V330.2C225.68 329.528 226.028 329.264 226.376 329.264C226.808 329.264 227.024 329.672 227.024 330.44V335H228.044V330.308C228.044 330.2 228.044 330.092 228.032 329.996C228.308 329.432 228.608 329.204 228.992 329.204C229.532 329.204 229.7 329.636 229.7 330.44V335H230.72V330.308C230.72 328.88 230.264 328.28 229.4 328.28ZM235.54 328.28C234.604 328.28 233.92 328.712 233.5 329.528L233.32 328.4H232.504V337.28H233.584V334.076C234.004 334.76 234.676 335.12 235.54 335.12C237.136 335.12 238.048 333.848 238.048 331.64C238.048 329.492 237.136 328.28 235.54 328.28ZM235.252 334.16C234.04 334.16 233.584 333.44 233.584 331.64C233.584 329.9 234.04 329.24 235.252 329.24C236.464 329.24 236.932 329.96 236.932 331.76C236.932 333.5 236.464 334.16 235.252 334.16ZM244.535 334.124C243.539 334.124 243.095 333.476 243.095 332.276V326.12H239.675V327.08H242.015V332.372C242.015 334.22 242.867 335.12 244.343 335.12C244.943 335.12 245.519 334.964 246.059 334.676V333.668C245.579 333.968 245.039 334.124 244.535 334.124ZM253.471 331.508C253.471 329.444 252.523 328.28 250.735 328.28C248.755 328.28 247.639 329.72 247.639 331.904C247.639 334.004 248.767 335.12 250.603 335.12C251.431 335.12 252.247 334.904 252.967 334.484V333.452C252.295 333.872 251.539 334.124 250.711 334.124C249.499 334.124 248.863 333.572 248.767 332.108H253.459C253.471 331.904 253.471 331.724 253.471 331.508ZM250.651 329.276C251.815 329.276 252.259 329.792 252.343 331.184H248.779C248.875 329.792 249.451 329.276 250.651 329.276ZM260.103 328.28C259.467 328.28 258.975 328.616 258.627 329.276C258.447 328.58 258.051 328.28 257.547 328.28C256.959 328.28 256.407 328.7 256.023 329.54L255.819 328.4H255.051V335H256.071V330.2C256.383 329.528 256.731 329.264 257.079 329.264C257.511 329.264 257.727 329.672 257.727 330.44V335H258.747V330.308C258.747 330.2 258.747 330.092 258.735 329.996C259.011 329.432 259.311 329.204 259.695 329.204C260.235 329.204 260.403 329.636 260.403 330.44V335H261.423V330.308C261.423 328.88 260.967 328.28 260.103 328.28ZM268.823 331.508C268.823 329.444 267.875 328.28 266.087 328.28C264.107 328.28 262.991 329.72 262.991 331.904C262.991 334.004 264.119 335.12 265.955 335.12C266.783 335.12 267.599 334.904 268.319 334.484V333.452C267.647 333.872 266.891 334.124 266.063 334.124C264.851 334.124 264.215 333.572 264.119 332.108H268.811C268.823 331.904 268.823 331.724 268.823 331.508ZM266.003 329.276C267.167 329.276 267.611 329.792 267.695 331.184H264.131C264.227 329.792 264.803 329.276 266.003 329.276ZM274.482 328.28C273.438 328.28 272.598 328.868 271.926 329.948L271.722 328.4H270.918V335H271.986V330.728C272.874 329.6 273.426 329.204 274.134 329.204C274.902 329.204 275.214 329.624 275.214 330.416V335H276.282V330.272C276.282 328.928 275.598 328.28 274.482 328.28ZM283.814 328.4H280.934V326.924H280.106L279.854 328.4L278.33 328.664V329.36H279.854V332.924C279.854 334.22 280.61 335.12 282.242 335.12C282.794 335.12 283.334 335.012 283.814 334.844V333.812C283.358 334.016 282.842 334.124 282.35 334.124C281.306 334.124 280.934 333.668 280.934 332.78V329.36H283.814V328.4ZM291.37 332.972V330.38C291.37 329.072 290.53 328.28 289.066 328.28C288.334 328.28 287.506 328.472 286.726 328.808V329.84C287.494 329.456 288.118 329.276 288.934 329.276C289.858 329.276 290.29 329.672 290.29 330.488V331.052C287.242 331.064 286.138 331.892 286.138 333.32C286.138 334.448 286.882 335.12 288.142 335.12C289.258 335.12 289.99 334.64 290.434 333.692L290.674 335H291.742L291.37 332.972ZM288.394 334.124C287.626 334.124 287.254 333.764 287.254 333.128C287.254 332.144 288.142 331.784 290.29 331.772V332.3C290.29 333.344 289.534 334.124 288.394 334.124ZM299.166 328.4H296.286V326.924H295.458L295.206 328.4L293.682 328.664V329.36H295.206V332.924C295.206 334.22 295.962 335.12 297.594 335.12C298.146 335.12 298.686 335.012 299.166 334.844V333.812C298.71 334.016 298.194 334.124 297.702 334.124C296.658 334.124 296.286 333.668 296.286 332.78V329.36H299.166V328.4ZM303.938 325.244V326.84H305.39V325.244H303.938ZM305.198 328.4H302.102V329.36H304.118V334.04H301.742V335H307.022V334.04H305.198V328.4ZM311.829 335.12C313.749 335.12 314.853 333.812 314.853 331.508C314.853 329.456 313.857 328.28 312.069 328.28C310.161 328.28 309.057 329.588 309.057 331.88C309.057 333.944 310.053 335.12 311.829 335.12ZM311.949 334.124C310.665 334.124 310.173 333.488 310.173 331.712C310.173 329.936 310.665 329.276 311.949 329.276C313.245 329.276 313.725 329.912 313.725 331.676C313.725 333.452 313.245 334.124 311.949 334.124ZM320.537 328.28C319.493 328.28 318.653 328.868 317.981 329.948L317.777 328.4H316.973V335H318.041V330.728C318.929 329.6 319.481 329.204 320.189 329.204C320.957 329.204 321.269 329.624 321.269 330.416V335H322.337V330.272C322.337 328.928 321.653 328.28 320.537 328.28Z" fill="black"/>
<path d="M405.6 326.6H404.184L402.84 329.624L401.496 326.6H400.092L399.684 335H400.812L401.076 327.896L402.576 331.256H403.116L404.604 327.896L404.868 335H406.008L405.6 326.6ZM412.964 332.972V330.38C412.964 329.072 412.124 328.28 410.66 328.28C409.928 328.28 409.1 328.472 408.32 328.808V329.84C409.088 329.456 409.712 329.276 410.528 329.276C411.452 329.276 411.884 329.672 411.884 330.488V331.052C408.836 331.064 407.732 331.892 407.732 333.32C407.732 334.448 408.476 335.12 409.736 335.12C410.852 335.12 411.584 334.64 412.028 333.692L412.268 335H413.336L412.964 332.972ZM409.988 334.124C409.22 334.124 408.848 333.764 408.848 333.128C408.848 332.144 409.736 331.784 411.884 331.772V332.3C411.884 333.344 411.128 334.124 409.988 334.124ZM417.856 325.244V326.84H419.308V325.244H417.856ZM419.116 328.4H416.02V329.36H418.036V334.04H415.66V335H420.94V334.04H419.116V328.4ZM426.779 328.28C425.735 328.28 424.895 328.868 424.223 329.948L424.019 328.4H423.215V335H424.283V330.728C425.171 329.6 425.723 329.204 426.431 329.204C427.199 329.204 427.511 329.624 427.511 330.416V335H428.579V330.272C428.579 328.928 427.895 328.28 426.779 328.28ZM436.111 328.4H433.231V326.924H432.403L432.151 328.4L430.627 328.664V329.36H432.151V332.924C432.151 334.22 432.907 335.12 434.539 335.12C435.091 335.12 435.631 335.012 436.111 334.844V333.812C435.655 334.016 435.139 334.124 434.647 334.124C433.603 334.124 433.231 333.668 433.231 332.78V329.36H436.111V328.4ZM443.667 332.972V330.38C443.667 329.072 442.827 328.28 441.363 328.28C440.631 328.28 439.803 328.472 439.023 328.808V329.84C439.791 329.456 440.415 329.276 441.231 329.276C442.155 329.276 442.587 329.672 442.587 330.488V331.052C439.539 331.064 438.435 331.892 438.435 333.32C438.435 334.448 439.179 335.12 440.439 335.12C441.555 335.12 442.287 334.64 442.731 333.692L442.971 335H444.039L443.667 332.972ZM440.691 334.124C439.923 334.124 439.551 333.764 439.551 333.128C439.551 332.144 440.439 331.784 442.587 331.772V332.3C442.587 333.344 441.831 334.124 440.691 334.124ZM449.807 328.28C448.763 328.28 447.923 328.868 447.251 329.948L447.047 328.4H446.243V335H447.311V330.728C448.199 329.6 448.751 329.204 449.459 329.204C450.227 329.204 450.539 329.624 450.539 330.416V335H451.607V330.272C451.607 328.928 450.923 328.28 449.807 328.28ZM459.018 332.972V330.38C459.018 329.072 458.178 328.28 456.714 328.28C455.982 328.28 455.154 328.472 454.374 328.808V329.84C455.142 329.456 455.766 329.276 456.582 329.276C457.506 329.276 457.938 329.672 457.938 330.488V331.052C454.89 331.064 453.786 331.892 453.786 333.32C453.786 334.448 454.53 335.12 455.79 335.12C456.906 335.12 457.638 334.64 458.082 333.692L458.322 335H459.39L459.018 332.972ZM456.042 334.124C455.274 334.124 454.902 333.764 454.902 333.128C454.902 332.144 455.79 331.784 457.938 331.772V332.3C457.938 333.344 457.182 334.124 456.042 334.124ZM465.158 328.28C464.114 328.28 463.274 328.868 462.602 329.948L462.398 328.4H461.594V335H462.662V330.728C463.55 329.6 464.102 329.204 464.81 329.204C465.578 329.204 465.89 329.624 465.89 330.416V335H466.958V330.272C466.958 328.928 466.274 328.28 465.158 328.28ZM474.826 330.788C474.826 329.252 473.722 328.28 472.15 328.28C470.254 328.28 469.126 329.588 469.126 331.88C469.126 333.944 470.254 335.12 472.09 335.12C472.93 335.12 473.746 334.892 474.454 334.46V333.416C473.686 333.932 473.05 334.124 472.234 334.124C470.782 334.124 470.242 333.452 470.242 331.712C470.242 329.924 470.734 329.24 472.126 329.24C473.242 329.24 473.71 329.672 473.71 330.788H474.826ZM482.526 331.508C482.526 329.444 481.578 328.28 479.79 328.28C477.81 328.28 476.694 329.72 476.694 331.904C476.694 334.004 477.822 335.12 479.658 335.12C480.486 335.12 481.302 334.904 482.022 334.484V333.452C481.35 333.872 480.594 334.124 479.766 334.124C478.554 334.124 477.918 333.572 477.822 332.108H482.514C482.526 331.904 482.526 331.724 482.526 331.508ZM479.706 329.276C480.87 329.276 481.314 329.792 481.398 331.184H477.834C477.93 329.792 478.506 329.276 479.706 329.276Z" fill="black"/>
<circle r="3.5" transform="matrix(-1 0 0 1 51.5 303.5)" fill="#1E5F92"/>
<circle r="3.5" transform="matrix(-1 0 0 1 219.5 303.5)" fill="#1E5F92"/>
<circle r="3.5" transform="matrix(-1 0 0 1 402.5 303.5)" fill="#1E5F92"/>
<path d="M135.942 165.488C136.684 165.488 137.594 165.712 138.532 166.104L138.798 164.564C138.028 164.312 137.244 164.06 136.32 164.06C133.142 164.06 130.804 167.042 130.804 170.626C130.804 173.034 131.854 174.14 133.828 174.14C135.368 174.14 136.964 173.468 137.832 172.81L138.504 168.96H134.808L134.57 170.332H136.698L136.362 172.25C135.704 172.53 134.934 172.712 134.15 172.712C132.946 172.712 132.414 172.32 132.414 170.486C132.414 167.56 133.702 165.488 135.942 165.488ZM142.685 174.14C145.233 174.14 147.165 171.886 147.165 168.904C147.165 167.168 146.185 166.16 144.365 166.16C141.803 166.16 139.885 168.414 139.885 171.396C139.885 173.146 140.865 174.14 142.685 174.14ZM143.063 172.768C141.943 172.768 141.453 172.362 141.453 171.284C141.453 168.89 142.363 167.532 143.987 167.532C145.093 167.532 145.583 167.924 145.583 169.016C145.583 171.424 144.673 172.768 143.063 172.768ZM151.64 174.14C154.188 174.14 156.12 171.886 156.12 168.904C156.12 167.168 155.14 166.16 153.32 166.16C150.758 166.16 148.84 168.414 148.84 171.396C148.84 173.146 149.82 174.14 151.64 174.14ZM152.018 172.768C150.898 172.768 150.408 172.362 150.408 171.284C150.408 168.89 151.318 167.532 152.942 167.532C154.048 167.532 154.538 167.924 154.538 169.016C154.538 171.424 153.628 172.768 152.018 172.768ZM163.731 167.294C163.339 166.566 162.653 166.16 161.673 166.16C159.531 166.16 157.879 168.47 157.879 171.396C157.879 173.146 158.733 174.14 160.273 174.14C161.337 174.14 162.233 173.65 162.891 172.74L162.905 174H164.025L165.859 163.64H164.375L163.731 167.294ZM160.917 172.824C159.895 172.824 159.447 172.39 159.447 171.298C159.447 168.89 160.343 167.476 161.869 167.476C162.877 167.476 163.339 167.91 163.339 169.002C163.339 171.396 162.443 172.824 160.917 172.824Z" fill="black"/>
<path d="M360.815 168.736C361.795 168.218 362.453 167.21 362.453 166.188C362.453 164.9 361.445 164.2 359.639 164.2H356.489L354.767 174H358.085C360.451 174 362.103 172.558 362.103 170.668C362.103 169.66 361.641 169.044 360.815 168.736ZM360.815 166.664C360.815 168.232 359.205 168.232 358.841 168.232H357.343L357.819 165.572H359.303C360.031 165.572 360.815 165.572 360.815 166.664ZM356.573 172.628L357.105 169.604H358.995C359.709 169.604 360.493 169.604 360.493 170.822C360.493 172.628 358.771 172.628 358.463 172.628H356.573ZM369.014 166.16C365.962 166.16 364.002 168.218 364.002 171.438C364.002 173.244 364.828 174.14 366.298 174.14C367.278 174.14 368.104 173.734 368.748 172.978L368.566 174H370.05L371.38 166.44C370.61 166.258 369.728 166.16 369.014 166.16ZM366.998 172.824C366.004 172.824 365.556 172.432 365.556 171.214C365.556 168.96 366.662 167.434 368.79 167.434C369.07 167.434 369.392 167.462 369.714 167.518L369.238 170.206C368.902 172.124 368.3 172.824 366.998 172.824ZM378.754 167.294C378.362 166.566 377.676 166.16 376.696 166.16C374.554 166.16 372.902 168.47 372.902 171.396C372.902 173.146 373.756 174.14 375.296 174.14C376.36 174.14 377.256 173.65 377.914 172.74L377.928 174H379.048L380.882 163.64H379.398L378.754 167.294ZM375.94 172.824C374.918 172.824 374.47 172.39 374.47 171.298C374.47 168.89 375.366 167.476 376.892 167.476C377.9 167.476 378.362 167.91 378.362 169.002C378.362 171.396 377.466 172.824 375.94 172.824Z" fill="black"/>
<path d="M527.786 174.14C529.97 174.14 531.454 172.754 531.874 170.402L532.966 164.2H531.398L530.264 170.612C529.998 172.138 529.424 172.712 528.122 172.712C526.764 172.712 526.442 172.082 526.708 170.612L527.842 164.2H526.274L525.098 170.836C524.734 172.908 525.77 174.14 527.786 174.14ZM539.037 166.3C535.971 166.3 534.039 168.274 534.039 171.102C534.039 172.852 534.865 173.86 536.391 173.86C537.343 173.86 538.169 173.468 538.799 172.74L538.729 173.118C538.477 174.434 537.245 175.33 534.263 175.33L534.011 176.73C537.497 176.73 539.821 175.358 540.255 172.922L541.375 166.566C540.605 166.384 539.709 166.3 539.037 166.3ZM537.021 172.544C536.069 172.544 535.607 172.138 535.607 170.962C535.607 168.652 536.671 167.434 538.827 167.434C539.149 167.434 539.429 167.462 539.723 167.518L539.275 170.066C539.093 171.088 538.841 172.544 537.021 172.544ZM547.992 172.768C546.9 172.768 546.522 172.04 546.732 170.822L548.006 163.64H543.904L543.666 164.956H546.284L545.234 170.934C544.856 173.076 545.724 174.14 547.46 174.14C548.16 174.14 548.888 173.958 549.588 173.622L549.826 172.25C549.224 172.586 548.538 172.768 547.992 172.768ZM556.891 170.948C555.743 172.152 555.113 172.6 554.399 172.6C553.657 172.6 553.447 172.11 553.587 171.284L554.469 166.3H552.985L552.061 171.466C551.767 173.09 552.467 173.86 553.671 173.86C554.777 173.86 555.785 173.23 556.695 172.124L556.513 173.118C556.275 174.434 555.029 175.33 552.047 175.33L551.795 176.73C555.281 176.73 557.605 175.358 558.039 172.922L559.201 166.3H557.717L556.891 170.948Z" fill="black"/>
<defs>
<linearGradient id="paint0_linear" x1="581" y1="168" x2="651" y2="168" gradientUnits="userSpaceOnUse">
<stop stop-color="#CA4D45"/>
<stop offset="1" stop-color="#CA4D45" stop-opacity="0"/>
</linearGradient>
</defs>
</svg>
